<svg width="34" height="44" viewBox="0 0 34 44" fill="none" xmlns="http://www.w3.org/2000/svg">
<rect width="34" height="44" fill="#1E1E1E"/>
<g filter="url(#filter0_d_0_1)">
<rect x="-241" y="1773" width="1280" height="832" rx="15" fill="#F5F5F5" shape-rendering="crispEdges"/>
<g filter="url(#filter1_d_0_1)">
<rect x="-241" y="-183" width="1280" height="832" rx="15" fill="#F5F5F5" shape-rendering="crispEdges"/>
<g filter="url(#filter2_d_0_1)">
<rect x="-10" y="-14" width="604" height="139" rx="15" fill="white"/>
<path d="M22 37H12M22 37C22 35.573 22 34.8594 22.0762 34.386C22.3218 32.8592 22.3648 32.763 23.3384 31.5614C23.6402 31.189 24.761 30.1854 27.0024 28.1784C30.0698 25.4318 32 21.4412 32 17C32 8.71572 25.2842 2 17 2C8.71572 2 2 8.71572 2 17C2 21.4412 3.9302 25.4318 6.99752 28.1784C9.2389 30.1854 10.3597 31.189 10.6616 31.5614C11.6352 32.763 11.6782 32.8592 11.9238 34.386C12 34.8594 12 35.573 12 37M22 37C22 38.8692 22 39.8038 21.598 40.5C21.3348 40.956 20.956 41.3348 20.5 41.598C19.8038 42 18.8692 42 17 42C15.1308 42 14.1962 42 13.5 41.598C13.044 41.3348 12.6652 40.956 12.4019 40.5C12 39.8038 12 38.8692 12 37" stroke="#4F4F4F" stroke-width="3"/>
<path d="M18.5714 15L14.2858 21H20.2858L16 27" stroke="#4F4F4F" stroke-width="3" stroke-linecap="round" stroke-linejoin="round"/>
</g>
</g>
</g>
<defs>
<filter id="filter0_d_0_1" x="-245" y="-184" width="1288" height="2797" filterUnits="userSpaceOnUse" color-interpolation-filters="sRGB">
<feFlood flood-opacity="0" result="BackgroundImageFix"/>
<feColorMatrix in="SourceAlpha" type="matrix" values="0 0 0 0 0 0 0 0 0 0 0 0 0 0 0 0 0 0 127 0" result="hardAlpha"/>
<feOffset dy="4"/>
<feGaussianBlur stdDeviation="2"/>
<feComposite in2="hardAlpha" operator="out"/>
<feColorMatrix type="matrix" values="0 0 0 0 0 0 0 0 0 0 0 0 0 0 0 0 0 0 0.25 0"/>
<feBlend mode="normal" in2="BackgroundImageFix" result="effect1_dropShadow_0_1"/>
<feBlend mode="normal" in="SourceGraphic" in2="effect1_dropShadow_0_1" result="shape"/>
</filter>
<filter id="filter1_d_0_1" x="-245" y="-184" width="1288" height="841" filterUnits="userSpaceOnUse" color-interpolation-filters="sRGB">
<feFlood flood-opacity="0" result="BackgroundImageFix"/>
<feColorMatrix in="SourceAlpha" type="matrix" values="0 0 0 0 0 0 0 0 0 0 0 0 0 0 0 0 0 0 127 0" result="hardAlpha"/>
<feOffset dy="4"/>
<feGaussianBlur stdDeviation="2"/>
<feComposite in2="hardAlpha" operator="out"/>
<feColorMatrix type="matrix" values="0 0 0 0 0 0 0 0 0 0 0 0 0 0 0 0 0 0 0.25 0"/>
<feBlend mode="normal" in2="BackgroundImageFix" result="effect1_dropShadow_0_1"/>
<feBlend mode="normal" in="SourceGraphic" in2="effect1_dropShadow_0_1" result="shape"/>
</filter>
<filter id="filter2_d_0_1" x="-14" y="-14" width="612" height="147" filterUnits="userSpaceOnUse" color-interpolation-filters="sRGB">
<feFlood flood-opacity="0" result="BackgroundImageFix"/>
<feColorMatrix in="SourceAlpha" type="matrix" values="0 0 0 0 0 0 0 0 0 0 0 0 0 0 0 0 0 0 127 0" result="hardAlpha"/>
<feOffset dy="4"/>
<feGaussianBlur stdDeviation="2"/>
<feComposite in2="hardAlpha" operator="out"/>
<feColorMatrix type="matrix" values="0 0 0 0 0 0 0 0 0 0 0 0 0 0 0 0 0 0 0.25 0"/>
<feBlend mode="normal" in2="BackgroundImageFix" result="effect1_dropShadow_0_1"/>
<feBlend mode="normal" in="SourceGraphic" in2="effect1_dropShadow_0_1" result="shape"/>
</filter>
</defs>
</svg>
