<svg width="40" height="44" viewBox="0 0 40 44" fill="none" xmlns="http://www.w3.org/2000/svg">
<g id="Group 10">
<path id="Vector" d="M38.1293 23.1088C38.1293 38.2217 25.2834 42 18.8603 42C13.2402 42 2 38.2217 2 23.1088C2 17.1972 5.10599 13.227 8.07814 10.9597C9.73254 9.69762 11.8408 10.9542 12.0528 13.0243L12.2352 14.8049C12.4573 16.9732 14.4313 18.751 16.259 17.5632C19.8389 15.2368 21.1273 9.64345 21.1273 6.57913V5.89134C21.1273 2.85284 24.1957 0.89729 26.6578 2.67787C32.1048 6.61724 38.1293 13.4882 38.1293 23.1088Z" stroke="#4F4F4F" stroke-width="3"/>
<path id="Vector_2" d="M12.6263 34.4437C12.6263 40.4887 17.9158 42 20.5605 42C22.8746 42 27.503 40.4887 27.503 34.4437C27.503 32.1038 26.2506 30.5241 25.0386 29.6125C24.1927 28.9765 23.0034 29.5477 22.7125 30.5653C22.3333 31.8917 20.9632 32.7254 20.2653 31.535C19.627 30.4467 19.627 28.8143 19.627 27.8318C19.627 26.4789 18.2665 25.603 17.172 26.3983C14.9778 27.9927 12.6263 30.6968 12.6263 34.4437Z" stroke="#4F4F4F" stroke-width="3"/>
</g>
</svg>
