<svg width="22" height="21" viewBox="0 0 22 21" fill="none" xmlns="http://www.w3.org/2000/svg">
<g id="Group 6">
<path id="Vector" d="M21 20H1" stroke="white" stroke-width="1.5" stroke-linecap="round"/>
<path id="Vector_2" d="M1 9L9.1259 2.49931C10.2216 1.62279 11.7784 1.62279 12.8741 2.49931L21 9" stroke="white" stroke-width="1.5" stroke-linecap="round"/>
<path id="Vector_3" d="M14.5 3.5V1.5C14.5 1.22386 14.7239 1 15 1H17.5C17.7761 1 18 1.22386 18 1.5V6.5" stroke="white" stroke-width="1.5" stroke-linecap="round"/>
<path id="Vector_4" d="M3 20V7.5" stroke="white" stroke-width="1.5" stroke-linecap="round"/>
<path id="Vector_5" d="M19 20V7.5" stroke="white" stroke-width="1.5" stroke-linecap="round"/>
<path id="Vector_6" d="M14 20V15C14 13.5858 14 12.8787 13.5607 12.4393C13.1213 12 12.4142 12 11 12C9.5858 12 8.87868 12 8.43934 12.4393C8 12.8787 8 13.5858 8 15V20" stroke="white" stroke-width="1.5"/>
<path id="Vector_7" d="M13 7.5C13 8.6046 12.1046 9.5 11 9.5C9.8954 9.5 9 8.6046 9 7.5C9 6.39543 9.8954 5.5 11 5.5C12.1046 5.5 13 6.39543 13 7.5Z" stroke="white" stroke-width="1.5"/>
</g>
</svg>
