<svg width="44" height="44" viewBox="0 0 44 44" fill="none" xmlns="http://www.w3.org/2000/svg">
<g id="Group 14">
<path id="Vector" d="M42 22C42 24.6264 41.4826 27.2272 40.4776 29.6536C39.4724 32.0802 37.9994 34.285 36.1422 36.1422C34.285 37.9994 32.0802 39.4724 29.6536 40.4776C27.2272 41.4826 24.6264 42 22 42C19.3736 42 16.7728 41.4826 14.3463 40.4776C11.9198 39.4724 9.71504 37.9994 7.85786 36.1422C6.0007 34.285 4.5275 32.0802 3.5224 29.6536C2.51732 27.2272 2 24.6264 2 22C2 19.3736 2.51732 16.7728 3.52242 14.3463C4.5275 11.9198 6.0007 9.71504 7.85786 7.85786C9.71504 6.0007 11.9198 4.5275 14.3463 3.5224C16.7728 2.51732 19.3736 2 22 2C24.6264 2 27.2272 2.51732 29.6536 3.52242C32.0802 4.5275 34.285 6.0007 36.1422 7.85786C37.9994 9.71504 39.4724 11.9198 40.4776 14.3463C41.4826 16.7728 42 19.3736 42 22Z" stroke="#4F4F4F" stroke-width="3"/>
<path id="Vector_2" d="M30 22C30 24.6264 29.793 27.2272 29.391 29.6536C28.989 32.0802 28.3998 34.285 27.6568 36.1422C26.914 37.9994 26.032 39.4724 25.0614 40.4776C24.0908 41.4826 23.0506 42 22 42C20.9494 42 19.9092 41.4826 18.9386 40.4776C17.9679 39.4724 17.086 37.9994 16.3431 36.1422C15.6003 34.285 15.011 32.0802 14.609 29.6536C14.2069 27.2272 14 24.6264 14 22C14 19.3736 14.2069 16.7728 14.609 14.3463C15.011 11.9198 15.6003 9.71504 16.3431 7.85786C17.086 6.0007 17.9679 4.5275 18.9386 3.5224C19.9092 2.51732 20.9494 2 22 2C23.0506 2 24.0908 2.51732 25.0614 3.52242C26.032 4.5275 26.914 6.0007 27.6568 7.85786C28.3998 9.71504 28.989 11.9198 29.391 14.3463C29.793 16.7728 30 19.3736 30 22Z" stroke="#4F4F4F" stroke-width="3"/>
<path id="Vector_3" d="M2 22H42" stroke="#4F4F4F" stroke-width="3" stroke-linecap="round"/>
</g>
</svg>
