<svg xmlns="http://www.w3.org/2000/svg" xmlns:xlink="http://www.w3.org/1999/xlink" width="500" zoomAndPan="magnify" viewBox="0 0 375 149.999998" height="200" preserveAspectRatio="xMidYMid meet" version="1.0"><defs><g/><clipPath id="b05d70d1ca"><path d="M 135.058594 6.949219 L 240 6.949219 L 240 82.699219 L 135.058594 82.699219 Z M 135.058594 6.949219 " clip-rule="nonzero"/></clipPath></defs><g clip-path="url(#b05d70d1ca)"><path fill="#ffffff" d="M 239.929688 28.730469 C 239.929688 15.136719 230.800781 9.699219 219.539062 9.699219 C 214.816406 9.699219 209.96875 10.730469 205.917969 12.691406 C 200.671875 9.109375 194.5 6.964844 187.496094 6.964844 C 180.488281 6.964844 174.320312 9.109375 169.070312 12.691406 C 165.019531 10.730469 160.171875 9.699219 155.449219 9.699219 C 144.1875 9.699219 135.058594 15.136719 135.058594 28.730469 C 135.058594 39.929688 141.257812 47.421875 149.734375 49.722656 C 149.609375 51.285156 149.535156 52.847656 149.535156 54.414062 C 149.535156 71.105469 162.703125 76.773438 174.535156 78.667969 C 177.734375 81.03125 182.34375 82.527344 187.496094 82.527344 C 192.644531 82.527344 197.257812 81.03125 200.453125 78.671875 C 212.289062 76.777344 225.453125 71.105469 225.453125 54.417969 C 225.453125 52.851562 225.378906 51.285156 225.253906 49.726562 C 233.730469 47.421875 239.929688 39.929688 239.929688 28.730469 Z M 239.929688 28.730469 " fill-opacity="1" fill-rule="nonzero"/></g><path fill="#a3d39c" d="M 162.890625 18.011719 C 161.964844 17.917969 161.035156 17.855469 160.113281 17.855469 C 151.101562 17.855469 143.796875 22.203125 143.796875 33.078125 C 143.796875 39.355469 146.238281 44.171875 150.027344 47.132812 C 151.402344 36.070312 155.867188 25.527344 162.890625 18.011719 Z M 214.878906 17.855469 C 213.953125 17.855469 213.023438 17.917969 212.09375 18.011719 C 219.121094 25.527344 223.582031 36.070312 224.960938 47.136719 C 228.75 44.171875 231.191406 39.355469 231.191406 33.078125 C 231.191406 22.203125 223.886719 17.855469 214.878906 17.855469 Z M 214.878906 17.855469 " fill-opacity="1" fill-rule="nonzero"/><path fill="#a3d39c" d="M 198.355469 61.570312 C 198.355469 71.316406 193.320312 73.785156 187.496094 73.785156 C 181.667969 73.785156 176.636719 71.316406 176.636719 61.570312 C 176.636719 51.828125 181.667969 43.925781 187.496094 43.925781 C 193.320312 43.925781 198.355469 51.828125 198.355469 61.570312 Z M 198.355469 61.570312 " fill-opacity="1" fill-rule="nonzero"/><path fill="#a3d39c" d="M 175.84375 47.203125 C 175.84375 47.492188 175.8125 47.777344 175.757812 48.058594 C 175.703125 48.339844 175.621094 48.613281 175.507812 48.878906 C 175.398438 49.140625 175.265625 49.394531 175.105469 49.632812 C 174.945312 49.871094 174.765625 50.09375 174.5625 50.292969 C 174.359375 50.496094 174.136719 50.679688 173.898438 50.839844 C 173.660156 50.996094 173.410156 51.132812 173.144531 51.242188 C 172.878906 51.351562 172.605469 51.433594 172.324219 51.492188 C 172.042969 51.546875 171.757812 51.574219 171.472656 51.574219 C 171.1875 51.574219 170.902344 51.546875 170.621094 51.492188 C 170.339844 51.433594 170.066406 51.351562 169.800781 51.242188 C 169.535156 51.132812 169.285156 50.996094 169.042969 50.839844 C 168.804688 50.679688 168.585938 50.496094 168.382812 50.292969 C 168.179688 50.09375 168 49.871094 167.839844 49.632812 C 167.679688 49.394531 167.546875 49.140625 167.433594 48.878906 C 167.324219 48.613281 167.242188 48.339844 167.1875 48.058594 C 167.128906 47.777344 167.101562 47.492188 167.101562 47.203125 C 167.101562 46.917969 167.128906 46.632812 167.1875 46.351562 C 167.242188 46.070312 167.324219 45.796875 167.433594 45.53125 C 167.546875 45.269531 167.679688 45.015625 167.839844 44.777344 C 168 44.539062 168.179688 44.316406 168.382812 44.113281 C 168.585938 43.914062 168.804688 43.730469 169.042969 43.570312 C 169.285156 43.414062 169.535156 43.277344 169.800781 43.167969 C 170.066406 43.058594 170.339844 42.976562 170.621094 42.917969 C 170.902344 42.863281 171.1875 42.835938 171.472656 42.835938 C 171.757812 42.835938 172.042969 42.863281 172.324219 42.917969 C 172.605469 42.976562 172.878906 43.058594 173.144531 43.167969 C 173.410156 43.277344 173.660156 43.414062 173.898438 43.570312 C 174.136719 43.730469 174.359375 43.914062 174.5625 44.113281 C 174.765625 44.316406 174.945312 44.539062 175.105469 44.777344 C 175.265625 45.015625 175.398438 45.269531 175.507812 45.53125 C 175.621094 45.796875 175.703125 46.070312 175.757812 46.351562 C 175.8125 46.632812 175.84375 46.917969 175.84375 47.203125 Z M 175.84375 47.203125 " fill-opacity="1" fill-rule="nonzero"/><path fill="#a3d39c" d="M 207.886719 47.203125 C 207.886719 47.492188 207.859375 47.777344 207.800781 48.058594 C 207.746094 48.339844 207.664062 48.613281 207.554688 48.878906 C 207.445312 49.140625 207.308594 49.394531 207.148438 49.632812 C 206.988281 49.871094 206.808594 50.09375 206.605469 50.292969 C 206.402344 50.496094 206.183594 50.679688 205.945312 50.839844 C 205.707031 50.996094 205.453125 51.132812 205.1875 51.242188 C 204.921875 51.351562 204.648438 51.433594 204.367188 51.492188 C 204.085938 51.546875 203.804688 51.574219 203.515625 51.574219 C 203.230469 51.574219 202.945312 51.546875 202.664062 51.492188 C 202.382812 51.433594 202.109375 51.351562 201.84375 51.242188 C 201.578125 51.132812 201.328125 50.996094 201.089844 50.839844 C 200.851562 50.679688 200.628906 50.496094 200.425781 50.292969 C 200.222656 50.09375 200.042969 49.871094 199.882812 49.632812 C 199.722656 49.394531 199.589844 49.140625 199.480469 48.878906 C 199.371094 48.613281 199.285156 48.339844 199.230469 48.058594 C 199.175781 47.777344 199.148438 47.492188 199.148438 47.203125 C 199.148438 46.917969 199.175781 46.632812 199.230469 46.351562 C 199.285156 46.070312 199.371094 45.796875 199.480469 45.53125 C 199.589844 45.269531 199.722656 45.015625 199.882812 44.777344 C 200.042969 44.539062 200.222656 44.316406 200.425781 44.113281 C 200.628906 43.914062 200.851562 43.730469 201.089844 43.570312 C 201.328125 43.414062 201.578125 43.277344 201.84375 43.167969 C 202.109375 43.058594 202.382812 42.976562 202.664062 42.917969 C 202.945312 42.863281 203.230469 42.835938 203.515625 42.835938 C 203.804688 42.835938 204.085938 42.863281 204.367188 42.917969 C 204.648438 42.976562 204.921875 43.058594 205.1875 43.167969 C 205.453125 43.277344 205.707031 43.414062 205.945312 43.570312 C 206.183594 43.730469 206.402344 43.914062 206.605469 44.113281 C 206.808594 44.316406 206.988281 44.539062 207.148438 44.777344 C 207.308594 45.015625 207.445312 45.269531 207.554688 45.53125 C 207.664062 45.796875 207.746094 46.070312 207.800781 46.351562 C 207.859375 46.632812 207.886719 46.917969 207.886719 47.203125 Z M 207.886719 47.203125 " fill-opacity="1" fill-rule="nonzero"/><g fill="#ffffff" fill-opacity="1"><g transform="translate(86.588232, 123.807094)"><g><path d="M 6.921875 0.40625 C 5.617188 0.40625 4.613281 0.0507812 3.90625 -0.65625 C 3.195312 -1.375 2.84375 -2.398438 2.84375 -3.734375 L 2.84375 -27.5625 C 2.84375 -28.894531 3.195312 -29.914062 3.90625 -30.625 C 4.613281 -31.332031 5.617188 -31.6875 6.921875 -31.6875 C 8.222656 -31.6875 9.226562 -31.332031 9.9375 -30.625 C 10.65625 -29.914062 11.015625 -28.894531 11.015625 -27.5625 L 11.015625 -17.890625 L 11.09375 -17.890625 L 21.890625 -29.78125 C 22.453125 -30.375 23.050781 -30.835938 23.6875 -31.171875 C 24.320312 -31.515625 25.035156 -31.6875 25.828125 -31.6875 C 27.046875 -31.6875 27.9375 -31.367188 28.5 -30.734375 C 29.0625 -30.097656 29.3125 -29.351562 29.25 -28.5 C 29.195312 -27.644531 28.859375 -26.875 28.234375 -26.1875 L 19 -16.421875 L 28.765625 -5.375 C 29.535156 -4.507812 29.921875 -3.632812 29.921875 -2.75 C 29.921875 -1.863281 29.609375 -1.113281 28.984375 -0.5 C 28.367188 0.101562 27.484375 0.40625 26.328125 0.40625 C 25.316406 0.40625 24.5 0.207031 23.875 -0.1875 C 23.257812 -0.59375 22.609375 -1.195312 21.921875 -2 L 11.09375 -14.109375 L 11.015625 -14.109375 L 11.015625 -3.734375 C 11.015625 -2.398438 10.664062 -1.375 9.96875 -0.65625 C 9.269531 0.0507812 8.253906 0.40625 6.921875 0.40625 Z M 6.921875 0.40625 "/></g></g></g><g fill="#ffffff" fill-opacity="1"><g transform="translate(116.863191, 123.807094)"><g><path d="M 17.9375 0.484375 C 14.769531 0.484375 11.992188 -0.1875 9.609375 -1.53125 C 7.222656 -2.875 5.363281 -4.757812 4.03125 -7.1875 C 2.707031 -9.613281 2.046875 -12.441406 2.046875 -15.671875 C 2.046875 -18.921875 2.703125 -21.75 4.015625 -24.15625 C 5.335938 -26.570312 7.195312 -28.445312 9.59375 -29.78125 C 11.988281 -31.113281 14.769531 -31.78125 17.9375 -31.78125 C 21.101562 -31.78125 23.875 -31.113281 26.25 -29.78125 C 28.632812 -28.445312 30.492188 -26.570312 31.828125 -24.15625 C 33.160156 -21.75 33.828125 -18.921875 33.828125 -15.671875 C 33.828125 -12.441406 33.160156 -9.613281 31.828125 -7.1875 C 30.492188 -4.757812 28.632812 -2.875 26.25 -1.53125 C 23.875 -0.1875 21.101562 0.484375 17.9375 0.484375 Z M 17.9375 -6.34375 C 20.238281 -6.34375 22.046875 -7.164062 23.359375 -8.8125 C 24.679688 -10.457031 25.34375 -12.742188 25.34375 -15.671875 C 25.34375 -18.597656 24.691406 -20.875 23.390625 -22.5 C 22.085938 -24.132812 20.269531 -24.953125 17.9375 -24.953125 C 15.59375 -24.953125 13.769531 -24.132812 12.46875 -22.5 C 11.164062 -20.875 10.515625 -18.597656 10.515625 -15.671875 C 10.515625 -12.742188 11.164062 -10.457031 12.46875 -8.8125 C 13.769531 -7.164062 15.59375 -6.34375 17.9375 -6.34375 Z M 17.9375 -6.34375 "/></g></g></g><g fill="#ffffff" fill-opacity="1"><g transform="translate(151.355347, 123.807094)"><g><path d="M 6.921875 0.40625 C 5.617188 0.40625 4.613281 0.0507812 3.90625 -0.65625 C 3.195312 -1.375 2.84375 -2.410156 2.84375 -3.765625 L 2.84375 -27.515625 C 2.84375 -28.878906 3.195312 -29.914062 3.90625 -30.625 C 4.613281 -31.332031 5.617188 -31.6875 6.921875 -31.6875 C 8.222656 -31.6875 9.226562 -31.332031 9.9375 -30.625 C 10.65625 -29.914062 11.015625 -28.878906 11.015625 -27.515625 L 11.015625 -19.21875 L 23.921875 -19.21875 L 23.921875 -27.515625 C 23.921875 -28.878906 24.273438 -29.914062 24.984375 -30.625 C 25.703125 -31.332031 26.710938 -31.6875 28.015625 -31.6875 C 29.316406 -31.6875 30.3125 -31.332031 31 -30.625 C 31.695312 -29.914062 32.046875 -28.878906 32.046875 -27.515625 L 32.046875 -3.765625 C 32.046875 -2.410156 31.695312 -1.375 31 -0.65625 C 30.3125 0.0507812 29.316406 0.40625 28.015625 0.40625 C 26.679688 0.40625 25.664062 0.0507812 24.96875 -0.65625 C 24.269531 -1.375 23.921875 -2.410156 23.921875 -3.765625 L 23.921875 -12.515625 L 11.015625 -12.515625 L 11.015625 -3.765625 C 11.015625 -2.410156 10.664062 -1.375 9.96875 -0.65625 C 9.269531 0.0507812 8.253906 0.40625 6.921875 0.40625 Z M 6.921875 0.40625 "/></g></g></g><g fill="#ffffff" fill-opacity="1"><g transform="translate(184.915279, 123.807094)"><g><path d="M 4.3125 0.40625 C 2.914062 0.40625 1.890625 -0.0664062 1.234375 -1.015625 C 0.585938 -1.960938 0.59375 -3.148438 1.25 -4.578125 L 12.296875 -28.359375 C 12.828125 -29.515625 13.476562 -30.359375 14.25 -30.890625 C 15.019531 -31.421875 15.921875 -31.6875 16.953125 -31.6875 C 17.960938 -31.6875 18.851562 -31.421875 19.625 -30.890625 C 20.394531 -30.359375 21.046875 -29.515625 21.578125 -28.359375 L 32.625 -4.578125 C 33.300781 -3.117188 33.328125 -1.921875 32.703125 -0.984375 C 32.085938 -0.0546875 31.113281 0.40625 29.78125 0.40625 C 28.601562 0.40625 27.695312 0.140625 27.0625 -0.390625 C 26.425781 -0.929688 25.851562 -1.789062 25.34375 -2.96875 L 23.921875 -6.34375 L 9.9375 -6.34375 L 8.515625 -2.96875 C 7.984375 -1.789062 7.4375 -0.929688 6.875 -0.390625 C 6.3125 0.140625 5.457031 0.40625 4.3125 0.40625 Z M 16.875 -22.765625 L 12.609375 -12.609375 L 21.21875 -12.609375 L 16.953125 -22.765625 Z M 16.875 -22.765625 "/></g></g></g><g fill="#ffffff" fill-opacity="1"><g transform="translate(217.454214, 123.807094)"><g><path d="M 7.109375 0 C 4.265625 0 2.84375 -1.40625 2.84375 -4.21875 L 2.84375 -27.078125 C 2.84375 -29.890625 4.265625 -31.296875 7.109375 -31.296875 L 17.9375 -31.296875 C 21.3125 -31.296875 23.921875 -30.5625 25.765625 -29.09375 C 27.617188 -27.632812 28.546875 -25.675781 28.546875 -23.21875 C 28.546875 -21.59375 28.140625 -20.171875 27.328125 -18.953125 C 26.515625 -17.742188 25.378906 -16.84375 23.921875 -16.25 C 25.671875 -15.71875 27.019531 -14.820312 27.96875 -13.5625 C 28.914062 -12.300781 29.390625 -10.738281 29.390625 -8.875 C 29.390625 -6.125 28.40625 -3.957031 26.4375 -2.375 C 24.46875 -0.789062 21.78125 0 18.375 0 Z M 10.65625 -18.859375 L 16.46875 -18.859375 C 17.945312 -18.859375 19.035156 -19.125 19.734375 -19.65625 C 20.429688 -20.195312 20.78125 -21.015625 20.78125 -22.109375 C 20.78125 -23.203125 20.429688 -24.003906 19.734375 -24.515625 C 19.035156 -25.035156 17.945312 -25.296875 16.46875 -25.296875 L 10.65625 -25.296875 Z M 10.65625 -6 L 17.265625 -6 C 18.773438 -6 19.878906 -6.285156 20.578125 -6.859375 C 21.273438 -7.429688 21.625 -8.296875 21.625 -9.453125 C 21.625 -10.609375 21.273438 -11.46875 20.578125 -12.03125 C 19.878906 -12.59375 18.773438 -12.875 17.265625 -12.875 L 10.65625 -12.875 Z M 10.65625 -6 "/></g></g></g><g fill="#ffffff" fill-opacity="1"><g transform="translate(247.285251, 123.807094)"><g><path d="M 6.921875 0.40625 C 5.617188 0.40625 4.613281 0.0507812 3.90625 -0.65625 C 3.195312 -1.375 2.84375 -2.410156 2.84375 -3.765625 L 2.84375 -27.515625 C 2.84375 -28.878906 3.195312 -29.914062 3.90625 -30.625 C 4.613281 -31.332031 5.617188 -31.6875 6.921875 -31.6875 C 8.222656 -31.6875 9.226562 -31.332031 9.9375 -30.625 C 10.65625 -29.914062 11.015625 -28.878906 11.015625 -27.515625 L 11.015625 -3.765625 C 11.015625 -2.410156 10.664062 -1.375 9.96875 -0.65625 C 9.269531 0.0507812 8.253906 0.40625 6.921875 0.40625 Z M 6.921875 0.40625 "/></g></g></g><g fill="#ffffff" fill-opacity="1"><g transform="translate(259.803582, 123.807094)"><g><path d="M 14.296875 0.40625 C 12.992188 0.40625 11.984375 0.0507812 11.265625 -0.65625 C 10.554688 -1.375 10.203125 -2.398438 10.203125 -3.734375 L 10.203125 -24.640625 L 3.234375 -24.640625 C 0.984375 -24.640625 -0.140625 -25.75 -0.140625 -27.96875 C -0.140625 -30.1875 0.984375 -31.296875 3.234375 -31.296875 L 25.34375 -31.296875 C 27.59375 -31.296875 28.71875 -30.1875 28.71875 -27.96875 C 28.71875 -25.75 27.59375 -24.640625 25.34375 -24.640625 L 18.375 -24.640625 L 18.375 -3.734375 C 18.375 -2.398438 18.023438 -1.375 17.328125 -0.65625 C 16.640625 0.0507812 15.628906 0.40625 14.296875 0.40625 Z M 14.296875 0.40625 "/></g></g></g></svg>