<svg width="20" height="21" viewBox="0 0 20 21" fill="none" xmlns="http://www.w3.org/2000/svg">
<g id="Group 3">
<path id="Vector" d="M1.88671 15.4552C1.02876 12.0234 0.599789 10.3075 1.50062 9.1538C2.40145 8 4.17016 8 7.70757 8H12.3382C15.8756 8 17.6443 8 18.5451 9.1538C19.446 10.3075 19.017 12.0234 18.1591 15.4552C17.6134 17.6379 17.3405 18.7292 16.5268 19.3646C15.713 20 14.5881 20 12.3382 20H7.70757C5.45771 20 4.33278 20 3.519 19.3646C2.70522 18.7292 2.43238 17.6379 1.88671 15.4552Z" stroke="white" stroke-width="1.5"/>
<path id="Vector_2" d="M6 12V16" stroke="white" stroke-width="1.5" stroke-linecap="round" stroke-linejoin="round"/>
<path id="Vector_3" d="M14 12V16" stroke="white" stroke-width="1.5" stroke-linecap="round" stroke-linejoin="round"/>
<path id="Vector_4" d="M10 12V16" stroke="white" stroke-width="1.5" stroke-linecap="round" stroke-linejoin="round"/>
<path id="Vector_5" d="M18 8.5L17.2896 5.89465C17.0157 4.89005 16.8787 4.38775 16.5978 4.00946C16.318 3.63273 15.9378 3.34234 15.5008 3.17152C15.0619 3 14.5413 3 13.5 3M3 8.5L3.7104 5.89465C3.98432 4.89005 4.12128 4.38775 4.40221 4.00946C4.68199 3.63273 5.06216 3.34234 5.49922 3.17152C5.93808 3 6.45872 3 7.5 3" stroke="white" stroke-width="1.5"/>
<path id="Vector_6" d="M7 2C7 1.44772 7.44772 1 8 1H12C12.5523 1 13 1.44772 13 2C13 2.55228 12.5523 3 12 3H8C7.44772 3 7 2.55228 7 2Z" stroke="white" stroke-width="1.5"/>
</g>
</svg>
