<svg width="44" height="44" viewBox="0 0 44 44" fill="none" xmlns="http://www.w3.org/2000/svg">
<path d="M3.96546 31.8245C2.06375 24.2177 1.1129 20.4143 3.10966 17.857C5.10642 15.2995 9.02691 15.2995 16.8679 15.2995H27.1321C34.9731 15.2995 38.8935 15.2995 40.8902 17.857C42.8871 20.4143 41.9362 24.2177 40.0346 31.8245C38.825 36.6627 38.2201 39.0816 36.4165 40.49C34.6127 41.8985 32.1192 41.8985 27.1321 41.8985H16.8679C11.8809 41.8985 9.38737 41.8985 7.58356 40.49C5.77976 39.0816 5.17498 36.6627 3.96546 31.8245Z" stroke="#607D8B" stroke-width="3"/>
<path d="M38.6244 16.4078L37.0498 10.6328C36.4427 8.40606 36.139 7.29267 35.5163 6.45416C34.8961 5.61911 34.0534 4.97544 33.0848 4.5968C32.1119 4.21661 30.9579 4.21661 28.6498 4.21661M5.37573 16.4078L6.95039 10.6328C7.55756 8.40606 7.86114 7.29267 8.48384 6.45416C9.104 5.61911 9.94668 4.97544 10.9155 4.5968C11.8882 4.21661 13.0423 4.21661 15.3503 4.21661" stroke="#607D8B" stroke-width="3"/>
<path d="M15.3503 4.21658C15.3503 2.99241 16.3428 2 17.5669 2H26.4333C27.6575 2 28.6498 2.99241 28.6498 4.21658C28.6498 5.44075 27.6575 6.43316 26.4333 6.43316H17.5669C16.3428 6.43316 15.3503 5.44075 15.3503 4.21658Z" stroke="#607D8B" stroke-width="3"/>
<path d="M13.1338 24.1658V33.0322" stroke="#607D8B" stroke-width="3" stroke-linecap="round" stroke-linejoin="round"/>
<path d="M30.8664 24.1658V33.0322" stroke="#607D8B" stroke-width="3" stroke-linecap="round" stroke-linejoin="round"/>
<path d="M22.0001 24.1658V33.0322" stroke="#607D8B" stroke-width="3" stroke-linecap="round" stroke-linejoin="round"/>
</svg>
