<svg width="20" height="22" viewBox="0 0 20 22" fill="none" xmlns="http://www.w3.org/2000/svg">
<g id="Group 5">
<path id="Vector" d="M14 3C16.175 3.01211 17.3529 3.10856 18.1213 3.87694C19 4.75562 19 6.16983 19 8.99826V14.9983C19 17.8267 19 19.2409 18.1213 20.1196C17.2426 20.9983 15.8284 20.9983 13 20.9983H7C4.17157 20.9983 2.75736 20.9983 1.87868 20.1196C1 19.2409 1 17.8267 1 14.9983V8.99826C1 6.16983 1 4.75562 1.87868 3.87694C2.64706 3.10856 3.82497 3.01211 6 3" stroke="white" stroke-width="1.5"/>
<path id="Vector_2" d="M7 12.4L8.7143 14L13 10" stroke="white" stroke-width="1.5" stroke-linecap="round" stroke-linejoin="round"/>
<path id="Vector_3" d="M6 2.5C6 1.67157 6.67157 1 7.5 1H12.5C13.3284 1 14 1.67157 14 2.5V3.5C14 4.32843 13.3284 5 12.5 5H7.5C6.67157 5 6 4.32843 6 3.5V2.5Z" stroke="white" stroke-width="1.5"/>
</g>
</svg>
