<svg width="46" height="44" viewBox="0 0 46 44" fill="none" xmlns="http://www.w3.org/2000/svg">
<g id="Water icon">
<path id="Vector" d="M18.7418 33.7481C18.7418 38.5139 15.0329 42.3773 10.4578 42.3773C5.88264 42.3773 2.17377 38.5139 2.17377 33.7481C2.17377 30.7663 5.41681 26.7862 7.84464 24.2246C9.28189 22.7082 11.6336 22.7082 13.0709 24.2246C15.4987 26.7862 18.7418 30.7663 18.7418 33.7481Z" stroke="#4F4F4F" stroke-width="3"/>
<path id="Vector_2" d="M43.5937 33.7481C43.5937 38.5139 39.8848 42.3773 35.3098 42.3773C30.7347 42.3773 27.0258 38.5139 27.0258 33.7481C27.0258 30.7663 30.2687 26.7862 32.6966 24.2246C34.1338 22.7082 36.4857 22.7082 37.9229 24.2246C40.3508 26.7862 43.5937 30.7663 43.5937 33.7481Z" stroke="#4F4F4F" stroke-width="3"/>
<path id="Vector_3" d="M31.1678 13.0381C31.1678 17.8039 27.4588 21.6673 22.8838 21.6673C18.3086 21.6673 14.5998 17.8039 14.5998 13.0381C14.5998 10.0562 17.8428 6.07633 20.2706 3.51467C21.7078 1.9982 24.0597 1.9982 25.4969 3.51467C27.9248 6.07633 31.1678 10.0562 31.1678 13.0381Z" stroke="#4F4F4F" stroke-width="3"/>
</g>
</svg>
